<svg width="26" height="25" viewBox="0 0 26 25" fill="none" xmlns="http://www.w3.org/2000/svg">
<path d="M25.9558 12.5311L25.9337 12.5422L22.2036 3.25844H23.9056C24.2108 3.25844 24.4582 3.01101 24.4582 2.70583C24.4582 2.40066 24.2108 2.15323 23.9056 2.15323H13.5056V0.556205C13.5056 0.251029 13.2582 0.00360107 12.953 0.00360107C12.6479 0.00360107 12.4004 0.251029 12.4004 0.556205V2.1477H2.00595C1.70078 2.1477 1.45335 2.39513 1.45335 2.70031C1.45335 3.00548 1.70078 3.25291 2.00595 3.25291H3.77981L0.0442083 12.5311C0.0165781 12.5958 0.00158874 12.6653 0 12.7356C0 15.2733 2.0572 17.3305 4.5949 17.3305C7.13259 17.3305 9.1898 15.2733 9.1898 12.7356C9.18821 12.6653 9.17322 12.5958 9.14559 12.5311L5.41552 3.24738H12.4004V20.3339C9.76451 20.5328 7.70329 22.1354 7.70329 24.075C7.70329 24.3802 7.95072 24.6276 8.2559 24.6276H17.6502C17.9553 24.6276 18.2028 24.3802 18.2028 24.075C18.2028 22.1354 16.1416 20.5328 13.5056 20.3339V3.24738H20.5624L16.8544 12.5311C16.8268 12.5958 16.8118 12.6653 16.8102 12.7356C16.8102 15.2733 18.8674 17.3305 21.4051 17.3305C23.9428 17.3305 26 15.2733 26 12.7356C25.9984 12.6653 25.9834 12.5958 25.9558 12.5311ZM4.59214 16.2336C2.88058 16.2312 1.42295 14.9888 1.14942 13.2992H8.01275C7.74059 14.9806 6.29533 16.2204 4.59214 16.2336ZM7.81382 12.194H1.38151L4.60319 4.17576L7.81382 12.194ZM16.9981 23.5224H8.90244C9.31137 22.3343 10.9968 21.417 12.9475 21.417C14.8982 21.417 16.5892 22.3343 16.9981 23.5224ZM21.3802 4.18128L24.5909 12.194H18.1586L21.3802 4.18128ZM21.3802 16.2336V16.2391C19.6752 16.2255 18.2294 14.9828 17.9596 13.2992H24.823C24.5494 14.9888 23.0918 16.2312 21.3802 16.2336Z" fill="black"/>
</svg>
