<svg width="16" height="16" viewBox="0 0 16 16" fill="none" xmlns="http://www.w3.org/2000/svg">
<path d="M14.8945 11.6831L13.0268 9.71452C12.5119 9.17182 11.674 9.17182 11.1591 9.71452L10.3102 10.6093C9.92008 11.0205 9.28531 11.0204 8.89536 10.6095L5.21563 6.72771C4.82463 6.31559 4.82457 5.64855 5.21563 5.23636C5.35238 5.09223 5.74503 4.67838 6.06458 4.34156C6.57725 3.80124 6.58441 2.92086 6.06408 2.37249L4.19687 0.410625C3.68194 -0.13208 2.84409 -0.13208 2.33054 0.409202C1.94625 0.810718 1.8223 0.940247 1.65 1.12028C-0.206885 3.07742 -0.206885 6.26192 1.64991 8.219L7.48031 14.3675C9.34153 16.3293 12.354 16.3294 14.2153 14.3675L14.8945 13.6516C15.4095 13.1089 15.4095 12.2258 14.8945 11.6831ZM2.95175 1.06681C3.12338 0.885905 3.40262 0.885874 3.57481 1.0673L5.44202 3.02917C5.61406 3.2105 5.61406 3.50399 5.44202 3.68535L5.13071 4.01344L2.64206 1.39038L2.95175 1.06681ZM8.10298 13.7114L2.27256 7.56285C0.835938 6.04864 0.756974 3.671 2.02971 2.05736L4.51114 4.67281C3.85912 5.45187 3.8863 6.63901 4.59293 7.3838L8.27253 11.2654C8.27256 11.2654 8.27262 11.2655 8.27265 11.2655C8.97852 12.0095 10.1048 12.04 10.8448 11.3519L13.3263 13.9674C11.8002 15.3065 9.54949 15.236 8.10298 13.7114ZM14.272 12.9955L13.9607 13.3236L11.4704 10.6988L11.7817 10.3707C11.9533 10.1898 12.2326 10.1898 12.4043 10.3707L14.272 12.3393C14.4436 12.5202 14.4436 12.8146 14.272 12.9955Z" fill="white"/>
</svg>
