<svg width="12" height="17" viewBox="0 0 12 17" fill="none" xmlns="http://www.w3.org/2000/svg">
<path d="M5.76933 0.00341797C2.73189 0.00341797 0.260742 2.60413 0.260742 5.80081C0.260742 6.88087 0.545016 7.9349 1.08302 8.84934L5.45577 16.2654C5.53953 16.4075 5.6871 16.4938 5.8458 16.4938C5.84703 16.4938 5.84822 16.4938 5.84945 16.4938C6.00953 16.4925 6.15741 16.4035 6.23964 16.2589L10.5009 8.77101C11.0092 7.8759 11.2779 6.84882 11.2779 5.80081C11.2779 2.60413 8.80676 0.00341797 5.76933 0.00341797ZM9.71305 8.27495L5.83886 15.0826L1.86334 8.34027C1.41553 7.57913 1.17272 6.70102 1.17272 5.80081C1.17272 3.13691 3.23813 0.963209 5.76933 0.963209C8.30052 0.963209 10.3629 3.13691 10.3629 5.80081C10.3629 6.67432 10.1361 7.52998 9.71305 8.27495Z" fill="white"/>
<path d="M5.76931 2.44629C4.08185 2.44629 2.70898 3.81621 2.70898 5.50006C2.70898 7.17315 4.05951 8.55383 5.76931 8.55383C7.5002 8.55383 8.82963 7.15476 8.82963 5.50006C8.82963 3.81621 7.45677 2.44629 5.76931 2.44629ZM5.76931 7.54269C4.63845 7.54269 3.72229 6.62544 3.72229 5.50006C3.72229 4.37749 4.64433 3.45743 5.76931 3.45743C6.89428 3.45743 7.81293 4.37749 7.81293 5.50006C7.81293 6.60902 6.91809 7.54269 5.76931 7.54269Z" fill="white"/>
</svg>
