<svg width="64" height="64" viewBox="0 0 64 64" fill="none" xmlns="http://www.w3.org/2000/svg">
<path d="M63.2242 35.1965C62.8667 33.9174 62.53 32.7083 62.53 31.605C62.53 30.5017 62.8667 29.2926 63.2242 28.0134C63.7932 25.9772 64.3803 23.8709 63.6777 21.8237C62.9487 19.694 61.1318 18.3022 59.3748 16.9584C58.3216 16.1519 57.3269 15.3907 56.6814 14.5526C56.0248 13.698 55.5601 12.5576 55.0704 11.3499C54.2621 9.36585 53.4274 7.31314 51.5576 6.02435C49.7185 4.7548 47.423 4.63252 45.2068 4.51573C43.824 4.44291 42.5162 4.37284 41.4214 4.03621C40.3975 3.72157 39.3374 3.06893 38.2161 2.37783C36.4117 1.26491 34.3652 0.00360107 31.9988 0.00360107C29.6324 0.00360107 27.5859 1.26491 25.7816 2.3792C24.6602 3.07031 23.6029 3.72432 22.5776 4.03759C21.4814 4.37421 20.1736 4.44428 18.7908 4.5171C16.5732 4.63526 14.2805 4.75617 12.44 6.02572C10.5702 7.31451 9.7355 9.36585 8.92722 11.3499C8.43473 12.5576 7.97008 13.6994 7.31343 14.554C6.66792 15.3948 5.67321 16.156 4.62008 16.9639C2.86439 18.309 1.05027 19.6981 0.321281 21.825C-0.381273 23.8736 0.205812 25.9786 0.77342 28.0162C1.13096 29.2953 1.46763 30.5031 1.46763 31.6064C1.46763 32.7097 1.13096 33.9188 0.77342 35.1979C0.205812 37.2341 -0.381273 39.3404 0.321281 41.3904C1.05027 43.5173 2.86578 44.9092 4.62147 46.2529C5.6746 47.0581 6.66931 47.8206 7.31343 48.6587C7.97147 49.5133 8.43613 50.6537 8.92722 51.8628C9.7355 53.8469 10.5716 55.8996 12.4428 57.1911C14.2805 58.4579 16.5746 58.5788 18.7908 58.6956C20.1736 58.7684 21.4814 58.8385 22.5762 59.1751C23.6002 59.4898 24.6589 60.1424 25.7788 60.8321C27.5845 61.9437 29.631 63.2064 31.9988 63.2064C34.3666 63.2064 36.4145 61.9437 38.2216 60.8308C39.3415 60.141 40.3988 59.4884 41.4242 59.1737C42.519 58.8371 43.8268 58.7671 45.2096 58.6942C47.4272 58.5774 49.7199 58.4565 51.5576 57.1897C53.4316 55.8982 54.2663 53.8427 55.0746 51.8573C55.5657 50.651 56.0289 49.5106 56.6828 48.6587C57.3283 47.8206 58.323 47.0581 59.3761 46.2529C61.1332 44.9078 62.9487 43.5173 63.6791 41.389C64.3817 39.3391 63.7932 37.2341 63.2242 35.1965ZM61.0426 40.5083C60.5821 41.8521 59.1673 42.9348 57.6704 44.0807C56.5226 44.96 55.3345 45.8696 54.4664 46.9962C53.5858 48.1449 53.0293 49.5106 52.4909 50.8337C51.8051 52.521 51.1568 54.1134 49.9645 54.935C48.7765 55.7539 46.9721 55.8487 45.0606 55.949C43.5678 56.0273 42.0222 56.1084 40.5948 56.5481C39.2301 56.9699 37.9669 57.7462 36.7468 58.4991C35.1121 59.5076 33.5693 60.4584 31.9986 60.4584C30.428 60.4584 28.8865 59.5076 27.2519 58.4991C26.0332 57.7476 24.7714 56.9699 23.4052 56.5481C21.9778 56.1098 20.4322 56.0273 18.9395 55.949C17.028 55.8487 15.2222 55.7526 14.0355 54.935C12.8447 54.1134 12.195 52.521 11.5091 50.8351C10.9707 49.512 10.4128 48.1449 9.53082 46.9962C8.66411 45.8696 7.47603 44.96 6.3269 44.0793C4.83136 42.9334 3.41791 41.8521 2.95742 40.5083C2.52754 39.2566 2.97968 37.6381 3.45686 35.9261C3.8464 34.526 4.24984 33.0806 4.24984 31.6036C4.24984 30.1266 3.8464 28.6825 3.45686 27.2825C2.97829 25.5705 2.52754 23.9533 2.95742 22.7016C3.41791 21.3579 4.82997 20.2766 6.32551 19.1307C7.47464 18.25 8.66411 17.339 9.52943 16.211C10.4142 15.0623 10.9707 13.6939 11.5105 12.3707C12.195 10.6849 12.8433 9.09381 14.0327 8.27492C15.2208 7.45466 17.028 7.35985 18.9409 7.25955C20.4322 7.17986 21.9778 7.0988 23.4038 6.65913C24.7714 6.23869 26.0346 5.45965 27.256 4.70671C28.8879 3.70234 30.4294 2.75155 31.9986 2.75155C33.5679 2.75155 35.1107 3.70234 36.744 4.70946C37.9655 5.46377 39.2273 6.24144 40.5948 6.66187C42.0208 7.10017 43.565 7.18124 45.0578 7.26093C46.9707 7.36123 48.7765 7.45878 49.9645 8.27767C51.1554 9.0993 51.8037 10.6904 52.4882 12.3735C53.0279 13.698 53.583 15.0651 54.4678 16.2137C55.3345 17.3404 56.5226 18.25 57.6704 19.1293C59.1673 20.2766 60.5821 21.3593 61.0426 22.7058C61.4725 23.9547 61.019 25.5719 60.5418 27.2838C60.1509 28.6839 59.7474 30.1293 59.7474 31.6064C59.7474 33.0834 60.1495 34.5288 60.5418 35.9275C61.0205 37.6395 61.4725 39.2566 61.0426 40.5083Z" fill="#E8AA31"/>
<path d="M31.9988 10.9945C20.4922 10.9945 11.1309 20.24 11.1309 31.6042C11.1309 42.9683 20.4922 52.2138 31.9988 52.2138C43.5054 52.2138 52.8667 42.9683 52.8667 31.6042C52.8667 20.24 43.5054 10.9945 31.9988 10.9945ZM31.9988 49.4658C22.0267 49.4658 13.9133 41.4528 13.9133 31.6042C13.9133 21.7555 22.0267 13.7425 31.9988 13.7425C37.142 13.7425 41.7789 15.8845 45.076 19.3002L31.8179 37.7266L24.6352 30.6327C24.0912 30.0955 23.212 30.0955 22.668 30.6327C22.1241 31.17 22.1241 32.0383 22.668 32.5755L31.0152 40.8194C31.2768 41.0791 31.6315 41.222 31.9988 41.222C32.0364 41.222 32.0767 41.2206 32.1157 41.2165C32.5233 41.1835 32.8961 40.9733 33.1326 40.6435L46.9013 21.5068C48.9046 24.3812 50.0843 27.8573 50.0843 31.6042C50.0843 41.4528 41.9709 49.4658 31.9988 49.4658Z" fill="#E8AA31"/>
</svg>
