<svg width="92" height="61" viewBox="0 0 92 61" fill="none" xmlns="http://www.w3.org/2000/svg">
<path d="M85.6998 25.4397L83.3691 15.6145C84.0063 15.4719 84.4845 14.8761 84.4845 14.1623V12.5782C84.4845 9.13867 81.8293 6.34053 78.5659 6.34053H67.9501V3.07295C67.9501 1.38044 66.6437 0.00360107 65.0377 0.00360107H10.9248C9.31884 0.00360107 8.01243 1.38044 8.01243 3.07295V30.0039C8.01243 30.824 8.64331 31.4891 9.42167 31.4891C10.1999 31.4891 10.8309 30.8242 10.8309 30.0039V3.07295C10.8309 3.0183 10.8729 2.97403 10.9248 2.97403H65.0376C65.0894 2.97403 65.1314 3.0183 65.1314 3.07295V30.0043C65.1314 30.8244 65.7623 31.4895 66.5407 31.4895C67.3189 31.4895 67.9499 30.8246 67.9499 30.0043V28.3206H84.5734C84.5748 28.3206 84.5759 28.321 84.5771 28.321C84.5785 28.321 84.5797 28.3208 84.581 28.3208C86.6265 28.3223 88.3634 29.7373 88.96 31.6871H84.5781C83.8 31.6871 83.1689 32.352 83.1689 33.1723V36.3406C83.1689 38.9066 85.1496 40.9941 87.5844 40.9941H89.1815V47.5287H85.4968C84.2863 43.8452 80.9639 41.192 77.0624 41.192C73.161 41.192 69.8383 43.8452 68.6281 47.5287H67.9496V36.3404C67.9496 35.5203 67.3187 34.8552 66.5403 34.8552C65.7621 34.8552 65.1311 35.5201 65.1311 36.3404V47.5283H35.8937C34.6832 43.8449 31.3608 41.1916 27.4593 41.1916C23.5579 41.1916 20.2352 43.8449 19.025 47.5283H10.9248C10.8729 47.5283 10.8309 47.4841 10.8309 47.4294V44.162H16.9374C17.7156 44.162 18.3466 43.4971 18.3466 42.6768C18.3466 41.8565 17.7158 41.1916 16.9374 41.1916H3.40924C2.63106 41.1916 2 41.8565 2 42.6768C2 43.4971 2.63088 44.162 3.40924 44.162H8.01261V47.4294C8.01261 49.1219 9.31902 50.4988 10.925 50.4988H18.537C18.5367 50.5317 18.5345 50.5645 18.5345 50.5977C18.5345 55.7842 22.5383 60.0036 27.4593 60.0036C32.3803 60.0036 36.3841 55.7842 36.3841 50.5977C36.3841 50.5644 36.382 50.5317 36.3816 50.4988H68.1401C68.1398 50.5317 68.1376 50.5645 68.1376 50.5977C68.1376 55.7842 72.1414 60.0036 77.0624 60.0036C81.9834 60.0036 85.9872 55.7842 85.9872 50.5977C85.9872 50.5644 85.9851 50.5317 85.9847 50.4988H90.5908C91.3689 50.4988 92 49.8339 92 49.0136V33.172C92.0002 29.2608 89.262 26.0112 85.6998 25.4397ZM67.9501 9.31077H78.5659C80.2754 9.31077 81.6662 10.7765 81.6662 12.5782V12.6771H67.9501V9.31077ZM67.9501 25.3504V15.6473H80.4719L82.7736 25.3504H67.9501ZM27.4593 57.0337C24.0922 57.0337 21.3528 54.1469 21.3528 50.5981C21.3528 47.0493 24.0922 44.1624 27.4593 44.1624C30.8264 44.1624 33.5658 47.0493 33.5658 50.5981C33.5658 54.1469 30.8264 57.0337 27.4593 57.0337ZM77.0628 57.0337C73.6957 57.0337 70.9563 54.1469 70.9563 50.5981C70.9563 47.0493 73.6957 44.1624 77.0628 44.1624C80.4299 44.1624 83.1693 47.0493 83.1693 50.5981C83.1693 54.1469 80.4299 57.0337 77.0628 57.0337ZM89.1819 38.0237H87.5847C86.7041 38.0237 85.9876 37.2686 85.9876 36.3404V34.6572H89.1817V38.0237H89.1819Z" fill="#E8AA31"/>
<path d="M27.5 48.0036C26.1214 48.0036 25 49.125 25 50.5036C25 51.8822 26.1214 53.0036 27.5 53.0036C28.8786 53.0036 30 51.8822 30 50.5036C30 49.125 28.8786 48.0036 27.5 48.0036Z" fill="#E8AA31"/>
<path d="M77.1035 48.0036C75.725 48.0036 74.6035 49.125 74.6035 50.5036C74.6035 51.8822 75.725 53.0036 77.1035 53.0036C78.4821 53.0036 79.6035 51.8822 79.6035 50.5036C79.6035 49.125 78.4821 48.0036 77.1035 48.0036Z" fill="#E8AA31"/>
<path d="M34.4531 37.0036H13.4092C12.6311 37.0036 12 37.6824 12 38.5198C12 39.3572 12.6309 40.036 13.4092 40.036H34.4531C35.2313 40.036 35.8624 39.3572 35.8624 38.5198C35.8624 37.6824 35.2315 37.0036 34.4531 37.0036Z" fill="#E8AA31"/>
<path d="M19.4469 33.0036H1.40924C0.631056 33.0036 0 33.6824 0 34.5198C0 35.3572 0.63088 36.036 1.40924 36.036H19.4469C20.2251 36.036 20.8561 35.3572 20.8561 34.5198C20.8561 33.6824 20.2251 33.0036 19.4469 33.0036Z" fill="#E8AA31"/>
<path d="M51.0027 15.0026C50.4525 14.4106 49.5601 14.4106 49.0099 15.0028L36.4781 28.4856L29.9588 21.4716C29.4085 20.8794 28.5162 20.8794 27.966 21.4716C27.4156 22.0637 27.4156 23.0235 27.966 23.6157L35.4817 31.7019C35.7568 31.998 36.1175 32.1459 36.4781 32.1459C36.8386 32.1459 37.1995 31.998 37.4744 31.7019L51.0025 17.1469C51.5529 16.5546 51.5529 15.5947 51.0027 15.0026Z" fill="#E8AA31"/>
</svg>
