<svg width="74" height="78" viewBox="0 0 74 78" fill="none" xmlns="http://www.w3.org/2000/svg">
<path d="M22.3146 13.5671C21.6898 13.5671 21.1831 14.112 21.1831 14.7844C21.1831 16.2611 20.0664 17.4626 18.6939 17.4626C17.3214 17.4626 16.2047 16.2611 16.2047 14.7844C16.2047 13.3077 17.3214 12.1063 18.6939 12.1063C19.3187 12.1063 19.8254 11.5613 19.8254 10.8889C19.8254 10.2165 19.3189 9.67157 18.6939 9.67157C16.0736 9.67157 13.9419 11.9652 13.9419 14.7843C13.9419 17.6033 16.0737 19.897 18.6939 19.897C21.3141 19.897 23.4459 17.6033 23.4459 14.7843C23.4461 14.112 22.9394 13.5671 22.3146 13.5671Z" fill="#E8AA31"/>
<path d="M22.3146 27.8501C21.6898 27.8501 21.1831 28.3951 21.1831 29.0675C21.1831 30.5442 20.0664 31.7456 18.6939 31.7456C17.3214 31.7456 16.2047 30.5442 16.2047 29.0675C16.2047 27.5908 17.3214 26.3894 18.6939 26.3894C19.3187 26.3894 19.8254 25.8444 19.8254 25.172C19.8254 24.4996 19.3189 23.9547 18.6939 23.9547C16.0736 23.9547 13.9419 26.2483 13.9419 29.0674C13.9419 31.8864 16.0737 34.1801 18.6939 34.1801C21.3141 34.1801 23.4459 31.8864 23.4459 29.0674C23.4461 28.3953 22.9394 27.8501 22.3146 27.8501Z" fill="#E8AA31"/>
<path d="M40.6865 31.3115H32.2384C31.6136 31.3115 31.1069 31.8565 31.1069 32.5289C31.1069 33.2012 31.6135 33.7462 32.2384 33.7462H40.6865C41.3113 33.7462 41.818 33.2012 41.818 32.5289C41.818 31.8565 41.3115 31.3115 40.6865 31.3115Z" fill="#E8AA31"/>
<path d="M40.6865 26.1175H32.2384C31.6136 26.1175 31.1069 26.6625 31.1069 27.3349C31.1069 28.0073 31.6135 28.5522 32.2384 28.5522H40.6865C41.3113 28.5522 41.818 28.0073 41.818 27.3349C41.818 26.6625 41.3115 26.1175 40.6865 26.1175Z" fill="#E8AA31"/>
<path d="M38.2728 45.5945H32.2384C31.6136 45.5945 31.1069 46.1395 31.1069 46.8119C31.1069 47.4843 31.6135 48.0292 32.2384 48.0292H38.2728C38.8976 48.0292 39.4043 47.4843 39.4043 46.8119C39.4043 46.1395 38.8976 45.5945 38.2728 45.5945Z" fill="#E8AA31"/>
<path d="M40.6865 40.4008H32.2384C31.6136 40.4008 31.1069 40.9457 31.1069 41.6181C31.1069 42.2905 31.6135 42.8354 32.2384 42.8354H40.6865C41.3113 42.8354 41.818 42.2905 41.818 41.6181C41.818 40.9457 41.3115 40.4008 40.6865 40.4008Z" fill="#E8AA31"/>
<path d="M51.5483 17.0283H32.2384C31.6136 17.0283 31.1069 17.5732 31.1069 18.2456C31.1069 18.918 31.6135 19.463 32.2384 19.463H51.5482C52.173 19.463 52.6797 18.918 52.6797 18.2456C52.6797 17.5732 52.1732 17.0283 51.5483 17.0283Z" fill="#E8AA31"/>
<path d="M46.7208 11.8344H32.2384C31.6136 11.8344 31.1069 12.3793 31.1069 13.0517C31.1069 13.7241 31.6135 14.2691 32.2384 14.2691H46.7208C47.3456 14.2691 47.8523 13.7241 47.8523 13.0517C47.8523 12.3793 47.3458 11.8344 46.7208 11.8344Z" fill="#E8AA31"/>
<path d="M22.3146 42.1333C21.6898 42.1333 21.1831 42.6783 21.1831 43.3507C21.1831 44.8274 20.0664 46.0288 18.6939 46.0288C17.3214 46.0288 16.2047 44.8274 16.2047 43.3507C16.2047 41.874 17.3214 40.6725 18.6939 40.6725C19.3187 40.6725 19.8254 40.1275 19.8254 39.4552C19.8254 38.7828 19.3189 38.2378 18.6939 38.2378C16.0736 38.2378 13.9419 40.5315 13.9419 43.3505C13.9419 46.1696 16.0737 48.4633 18.6939 48.4633C21.3141 48.4633 23.4459 46.1696 23.4459 43.3505C23.4461 42.6783 22.9394 42.1333 22.3146 42.1333Z" fill="#E8AA31"/>
<path d="M58.487 0.00360107H4.65125C2.08667 0.00360107 0 1.71462 0 3.81785V58.3535C0 60.4567 2.08648 62.1677 4.65125 62.1677H31.5692C32.389 62.1677 33.0537 61.6227 33.0537 60.9504C33.0537 60.2781 32.3891 59.733 31.5692 59.733H4.65125C3.72356 59.733 2.96881 59.1141 2.96881 58.3533V3.81785C2.96881 3.0571 3.72356 2.43817 4.65125 2.43817H58.487C59.4147 2.43817 60.1694 3.0571 60.1694 3.81785V44.0706C60.1694 44.7428 60.834 45.2879 61.6539 45.2879C62.4737 45.2879 63.1384 44.743 63.1384 44.0706V3.81785C63.1382 1.71462 61.0518 0.00360107 58.487 0.00360107Z" fill="#E8AA31"/>
<path d="M70.2756 49.3682C69.224 49.2554 68.1729 49.5761 67.3411 50.2556C66.6785 49.0594 65.5485 48.2107 64.2412 48.0698C63.1893 47.9571 62.1384 48.2778 61.3067 48.9572C60.6441 47.7609 59.5142 46.9122 58.2068 46.7713C57.4038 46.6851 56.6019 46.8515 55.8972 47.2374V31.735C55.8972 30.4763 55.3995 29.2697 54.5314 28.4247C53.6641 27.5804 52.4954 27.1683 51.3247 27.2943C49.236 27.5194 47.6 29.5512 47.6 31.9202V47.4618L44.274 51.0402C42.5066 52.9418 41.7931 55.6398 42.3657 58.2577L44.8908 69.8037C45.9139 74.4822 49.7483 77.7497 54.2155 77.7497H64.4206C69.7027 77.7497 74.0001 73.1262 74.0001 67.4431V53.9944C74.0003 51.6251 72.3642 49.5933 70.2756 49.3682ZM71.7373 67.4428C71.7373 71.7833 68.4551 75.3147 64.4207 75.3147H54.2157C50.8037 75.3147 47.8749 72.8191 47.0935 69.2456L44.5684 57.6996C44.1766 55.9086 44.6648 54.0624 45.8741 52.7614L47.6 50.9045V55.1073C47.6 55.7795 48.1065 56.3247 48.7315 56.3247C49.3564 56.3247 49.8629 55.7797 49.8629 55.1073V31.9201C49.8629 30.7865 50.604 29.8187 51.5504 29.7169C52.0939 29.6581 52.6137 29.8407 53.0134 30.23C53.4081 30.6143 53.6345 31.163 53.6345 31.7351V53.1598C53.6345 53.8321 54.141 54.3772 54.766 54.3772C55.3909 54.3772 55.8975 53.8322 55.8975 53.1598V51.2121C55.8975 50.6399 56.1237 50.0913 56.5186 49.707C56.9186 49.3177 57.4381 49.135 57.9816 49.1939C58.9278 49.2958 59.669 50.2637 59.669 51.3972V54.458C59.669 55.1302 60.1755 55.6754 60.8005 55.6754C61.4253 55.6754 61.932 55.1304 61.932 54.458V52.5103C61.932 51.9381 62.1582 51.3895 62.5531 51.0051C62.9531 50.6158 63.4727 50.4333 64.0161 50.492C64.9623 50.5939 65.7035 51.5618 65.7035 52.6954V55.7563C65.7035 56.4285 66.21 56.9736 66.835 56.9736C67.4598 56.9736 67.9665 56.4287 67.9665 55.7563V53.8085C67.9665 53.2364 68.1927 52.6878 68.5876 52.3034C68.9876 51.9142 69.5068 51.7314 70.0506 51.7905C70.9968 51.8922 71.738 52.8601 71.738 53.9936V67.4428H71.7373Z" fill="#E8AA31"/>
</svg>
