<svg width="67" height="66" viewBox="0 0 67 66" fill="none" xmlns="http://www.w3.org/2000/svg">
<path d="M66.1878 36.6994C65.8135 35.3656 65.4611 34.1048 65.4611 32.9544C65.4611 31.804 65.8135 30.5433 66.1878 29.2095C66.7835 27.0863 67.3981 24.8901 66.6626 22.7554C65.8995 20.5348 63.9974 19.0836 62.158 17.6824C61.0555 16.8415 60.0141 16.0478 59.3383 15.1739C58.6509 14.2828 58.1645 13.0937 57.6518 11.8344C56.8056 9.76564 55.9318 7.62527 53.9744 6.28145C52.049 4.95768 49.6459 4.83018 47.3259 4.70841C45.8782 4.63247 44.5092 4.55941 43.363 4.20841C42.2911 3.88034 41.1813 3.19983 40.0074 2.47921C38.1185 1.31877 35.9761 0.00360107 33.4988 0.00360107C31.0214 0.00360107 28.879 1.31877 26.9901 2.48064C25.8162 3.20126 24.7093 3.8832 23.636 4.20985C22.4883 4.56084 21.1193 4.63391 19.6716 4.70984C17.3501 4.83305 14.9499 4.95912 13.0231 6.28288C11.0657 7.6267 10.1919 9.76564 9.34568 11.8344C8.83011 13.0937 8.34367 14.2842 7.65625 15.1753C6.98047 16.0521 5.93914 16.8458 4.83664 17.6882C2.99866 19.0907 1.0995 20.5391 0.336341 22.7569C-0.399145 24.8929 0.215459 27.0877 0.809674 29.2124C1.18397 30.5461 1.53642 31.8054 1.53642 32.9559C1.53642 34.1063 1.18397 35.367 0.809674 36.7008C0.215459 38.824 -0.399145 41.0202 0.336341 43.1577C1.0995 45.3754 3.00011 46.8267 4.8381 48.2278C5.9406 49.0674 6.98193 49.8625 7.65625 50.7364C8.34513 51.6275 8.83157 52.8166 9.34568 54.0773C10.1919 56.1461 11.0672 58.2864 13.026 59.6331C14.9499 60.954 17.3516 61.0801 19.6716 61.2019C21.1193 61.2778 22.4883 61.3509 23.6345 61.7019C24.7064 62.0299 25.8147 62.7104 26.9872 63.4296C28.8776 64.5886 31.0199 65.9052 33.4988 65.9052C35.9776 65.9052 38.1214 64.5886 40.0133 63.4282C41.1857 62.709 42.2925 62.0285 43.3659 61.7004C44.5121 61.3494 45.8811 61.2764 47.3288 61.2004C49.6503 61.0787 52.0505 60.9526 53.9744 59.6317C55.9362 58.285 56.81 56.1418 57.6562 54.0716C58.1703 52.8137 58.6553 51.6246 59.3398 50.7364C60.0156 49.8625 61.0569 49.0674 62.1594 48.2278C63.9988 46.8253 65.8995 45.3754 66.6641 43.1563C67.3996 41.0188 66.7835 38.824 66.1878 36.6994ZM63.904 42.238C63.4219 43.6391 61.9408 44.768 60.3737 45.9628C59.1721 46.8797 57.9284 47.8281 57.0196 49.0029C56.0977 50.2006 55.5151 51.6246 54.9515 53.0043C54.2334 54.7636 53.5548 56.424 52.3066 57.2807C51.0629 58.1346 49.1739 58.2334 47.1728 58.338C45.6101 58.4197 43.992 58.5042 42.4977 58.9626C41.069 59.4025 39.7466 60.2119 38.4693 60.997C36.758 62.0486 35.1429 63.04 33.4986 63.04C31.8543 63.04 30.2406 62.0486 28.5293 60.997C27.2535 60.2133 25.9325 59.4025 24.5023 58.9626C23.0081 58.5056 21.39 58.4197 19.8273 58.338C17.8262 58.2334 15.9357 58.1331 14.6934 57.2807C13.4467 56.424 12.7666 54.7636 12.0486 53.0057C11.485 51.6261 10.9009 50.2006 9.97758 49.0029C9.07024 47.8281 7.82647 46.8797 6.62347 45.9614C5.05783 44.7666 3.57812 43.6391 3.09605 42.238C2.64602 40.9328 3.11935 39.2452 3.6189 37.4601C4.0267 36.0002 4.44906 34.4931 4.44906 32.953C4.44906 31.4129 4.0267 29.9072 3.6189 28.4473C3.1179 26.6622 2.64602 24.976 3.09605 23.6709C3.57812 22.2698 5.05638 21.1423 6.62202 19.9474C7.82501 19.0291 9.07024 18.0793 9.97612 16.9031C10.9024 15.7054 11.485 14.2785 12.05 12.8988C12.7666 11.141 13.4453 9.48198 14.6905 8.62812C15.9343 7.77283 17.8262 7.67398 19.8287 7.5694C21.39 7.4863 23.0081 7.40178 24.5009 6.94333C25.9325 6.50494 27.2549 5.69263 28.5337 4.90754C30.242 3.86028 31.8557 2.86889 33.4986 2.86889C35.1414 2.86889 36.7566 3.86028 38.4664 4.91041C39.7451 5.69693 41.0661 6.50781 42.4977 6.9462C43.9905 7.40321 45.6071 7.48774 47.1699 7.57083C49.1724 7.67541 51.0629 7.77713 52.3066 8.63099C53.5533 9.48771 54.232 11.1467 54.9485 12.9017C55.5136 14.2828 56.0947 15.7082 57.021 16.9059C57.9284 18.0807 59.1721 19.0291 60.3737 19.946C61.9408 21.1423 63.4219 22.2712 63.904 23.6752C64.354 24.9775 63.8792 26.6637 63.3797 28.4488C62.9704 29.9086 62.5481 31.4158 62.5481 32.9559C62.5481 34.4959 62.969 36.0031 63.3797 37.4615C63.8809 39.2466 64.354 40.9328 63.904 42.238Z" fill="#E8AA31"/>
<path d="M33.5012 10.0117C20.6182 10.0117 10.1748 20.2852 10.1748 32.9574C10.1748 45.6302 20.6182 55.9032 33.5012 55.9032C46.3836 55.9032 56.8276 45.6302 56.8276 32.9574C56.8135 20.2905 46.3782 10.0256 33.5012 10.0117ZM33.5012 53.7179C21.845 53.7179 12.3964 44.4234 12.3964 32.9574C12.3964 21.492 21.845 12.197 33.5012 12.197C45.1568 12.197 54.606 21.492 54.606 32.9574C54.593 44.418 45.1514 53.7056 33.5012 53.7179Z" fill="#E8AA31"/>
<path d="M22.7183 42.0187L42.7123 22.351L44.2835 23.896L24.289 43.5644L22.7183 42.0187Z" fill="#E8AA31"/>
<path d="M40.1658 35.1428C37.7115 35.1428 35.7227 37.0997 35.7227 39.5134C35.7227 41.9275 37.7115 43.884 40.1658 43.884C42.6195 43.884 44.6089 41.9275 44.6089 39.5134C44.6089 37.0997 42.6195 35.1428 40.1658 35.1428ZM40.1658 41.6987C38.9389 41.6987 37.9442 40.7202 37.9442 39.5134C37.9442 38.3065 38.9389 37.3281 40.1658 37.3281C41.3927 37.3281 42.3874 38.3065 42.3874 39.5134C42.3874 40.7202 41.3927 41.6987 40.1658 41.6987Z" fill="#E8AA31"/>
<path d="M26.8367 30.7721C29.2904 30.7721 31.2798 28.8156 31.2798 26.4015C31.2798 23.9878 29.2904 22.0309 26.8367 22.0309C24.3824 22.0309 22.3936 23.9878 22.3936 26.4015C22.3936 28.8156 24.3824 30.7721 26.8367 30.7721ZM26.8367 24.2162C28.0636 24.2162 29.0583 25.1946 29.0583 26.4015C29.0583 27.6083 28.0636 28.5868 26.8367 28.5868C25.6098 28.5868 24.6151 27.6083 24.6151 26.4015C24.6151 25.1946 25.6098 24.2162 26.8367 24.2162Z" fill="#E8AA31"/>
</svg>
